<svg version="1.1" xmlns="http://www.w3.org/2000/svg" xmlns:xlink="http://www.w3.org/1999/xlink" width="1415" height="680"><defs></defs><g><g transform="translate(-14,-62) scale(1,1)"><rect fill="#C0C0C0" stroke="none" x="383" y="79" width="73" height="44" opacity="0.2"></rect></g><g transform="translate(-14,-62) scale(1,1)"><rect fill="#ffffff" stroke="none" x="376" y="72" width="73" height="44"></rect></g><g transform="translate(-14,-62) scale(1,1)"><path fill="none" stroke="#000000" d="M 376 72 L 449 72 L 449 116 L 376 116 L 376 72 Z Z" stroke-miterlimit="10"></path></g><g transform="translate(-14,-62) scale(1,1)"><path fill="none" stroke="#000000" d="M 376 97 L 449 97" stroke-miterlimit="10"></path></g><g transform="translate(-14,-62) scale(1,1)"><path fill="none" stroke="#000000" d="M 376 107 L 449 107" stroke-miterlimit="10"></path></g><g transform="translate(-14,-62) scale(1,1)"><g><path fill="none" stroke="none"></path><text fill="#000000" stroke="none" font-family="Arial" font-size="13px" font-style="normal" font-weight="bold" text-decoration="none" x="383.5" y="91.5">MainPage</text></g></g><g transform="translate(-14,-62) scale(1,1)"><rect fill="#C0C0C0" stroke="none" x="251" y="187" width="105" height="44" opacity="0.2"></rect></g><g transform="translate(-14,-62) scale(1,1)"><rect fill="#ffffff" stroke="none" x="244" y="180" width="105" height="44"></rect></g><g transform="translate(-14,-62) scale(1,1)"><path fill="none" stroke="#000000" d="M 244 180 L 349 180 L 349 224 L 244 224 L 244 180 Z Z" stroke-miterlimit="10"></path></g><g transform="translate(-14,-62) scale(1,1)"><path fill="none" stroke="#000000" d="M 244 205 L 349 205" stroke-miterlimit="10"></path></g><g transform="translate(-14,-62) scale(1,1)"><path fill="none" stroke="#000000" d="M 244 215 L 349 215" stroke-miterlimit="10"></path></g><g transform="translate(-14,-62) scale(1,1)"><g><path fill="none" stroke="none"></path><text fill="#000000" stroke="none" font-family="Arial" font-size="13px" font-style="normal" font-weight="bold" text-decoration="none" x="253" y="199.5">TimeEntryView</text></g></g><g transform="translate(-14,-62) scale(1,1)"><path fill="none" stroke="#000000" d="M 320.7037037037037 179 L 387.2962962962963 117" stroke-miterlimit="10"></path></g><g transform="translate(-14,-62) scale(1,1)"><path fill="#000000" stroke="none" d="M 382.7267391964489 127.00595562208997 L 387.2962962962963 117 L 376.9898524113436 120.8441142603102 L 371.1946288588066 131.99120761421455"></path></g><g transform="translate(-14,-62) scale(1,1)"><path fill="none" stroke="#000000" d="M 382.7267391964489 127.00595562208997 L 387.2962962962963 117 L 376.9898524113436 120.8441142603102 L 371.1946288588066 131.99120761421455 L 382.7267391964489 127.00595562208997" stroke-miterlimit="10"></path></g><g transform="translate(-14,-62) scale(1,1)"><rect fill="#C0C0C0" stroke="none" x="539" y="187" width="91" height="44" opacity="0.2"></rect></g><g transform="translate(-14,-62) scale(1,1)"><rect fill="#ffffff" stroke="none" x="532" y="180" width="91" height="44"></rect></g><g transform="translate(-14,-62) scale(1,1)"><path fill="none" stroke="#000000" d="M 532 180 L 623 180 L 623 224 L 532 224 L 532 180 Z Z" stroke-miterlimit="10"></path></g><g transform="translate(-14,-62) scale(1,1)"><path fill="none" stroke="#000000" d="M 532 205 L 623 205" stroke-miterlimit="10"></path></g><g transform="translate(-14,-62) scale(1,1)"><path fill="none" stroke="#000000" d="M 532 215 L 623 215" stroke-miterlimit="10"></path></g><g transform="translate(-14,-62) scale(1,1)"><g><path fill="none" stroke="none"></path><text fill="#000000" stroke="none" font-family="Arial" font-size="13px" font-style="normal" font-weight="bold" text-decoration="none" x="545" y="199.5">ActionView</text></g></g><g transform="translate(-14,-62) scale(1,1)"><path fill="none" stroke="#000000" d="M 541.8611111111111 179 L 447.1388888888889 117" stroke-miterlimit="10"></path></g><g transform="translate(-14,-62) scale(1,1)"><path fill="#000000" stroke="none" d="M 457.9473953780867 119.0435722333622 L 447.1388888888889 117 L 453.33663333784455 126.08779201706551 L 465.5463222605614 129.04850184327654"></path></g><g transform="translate(-14,-62) scale(1,1)"><path fill="none" stroke="#000000" d="M 457.9473953780867 119.0435722333622 L 447.1388888888889 117 L 453.33663333784455 126.08779201706551 L 465.5463222605614 129.04850184327654 L 457.9473953780867 119.0435722333622" stroke-miterlimit="10"></path></g><g transform="translate(-14,-62) scale(1,1)"><rect fill="#C0C0C0" stroke="none" x="231" y="263" width="144" height="44" opacity="0.2"></rect></g><g transform="translate(-14,-62) scale(1,1)"><rect fill="#ffffff" stroke="none" x="224" y="256" width="144" height="44"></rect></g><g transform="translate(-14,-62) scale(1,1)"><path fill="none" stroke="#000000" d="M 224 256 L 368 256 L 368 300 L 224 300 L 224 256 Z Z" stroke-miterlimit="10"></path></g><g transform="translate(-14,-62) scale(1,1)"><path fill="none" stroke="#000000" d="M 224 281 L 368 281" stroke-miterlimit="10"></path></g><g transform="translate(-14,-62) scale(1,1)"><path fill="none" stroke="#000000" d="M 224 291 L 368 291" stroke-miterlimit="10"></path></g><g transform="translate(-14,-62) scale(1,1)"><g><path fill="none" stroke="none"></path><text fill="#000000" stroke="none" font-family="Arial" font-size="13px" font-style="normal" font-weight="bold" text-decoration="none" x="239" y="275.5">TimeEntryController</text></g></g><g transform="translate(-14,-62) scale(1,1)"><rect fill="#C0C0C0" stroke="none" x="519" y="263" width="130" height="44" opacity="0.2"></rect></g><g transform="translate(-14,-62) scale(1,1)"><rect fill="#ffffff" stroke="none" x="512" y="256" width="130" height="44"></rect></g><g transform="translate(-14,-62) scale(1,1)"><path fill="none" stroke="#000000" d="M 512 256 L 642 256 L 642 300 L 512 300 L 512 256 Z Z" stroke-miterlimit="10"></path></g><g transform="translate(-14,-62) scale(1,1)"><path fill="none" stroke="#000000" d="M 512 281 L 642 281" stroke-miterlimit="10"></path></g><g transform="translate(-14,-62) scale(1,1)"><path fill="none" stroke="#000000" d="M 512 291 L 642 291" stroke-miterlimit="10"></path></g><g transform="translate(-14,-62) scale(1,1)"><g><path fill="none" stroke="none"></path><text fill="#000000" stroke="none" font-family="Arial" font-size="13px" font-style="normal" font-weight="bold" text-decoration="none" x="531" y="275.5">ActionController</text></g></g><g transform="translate(-14,-62) scale(1,1)"><rect fill="#C0C0C0" stroke="none" x="303" y="459" width="137" height="132" opacity="0.2"></rect></g><g transform="translate(-14,-62) scale(1,1)"><rect fill="#ffffff" stroke="none" x="296" y="452" width="137" height="132"></rect></g><g transform="translate(-14,-62) scale(1,1)"><path fill="none" stroke="#000000" d="M 296 452 L 433 452 L 433 584 L 296 584 L 296 452 Z Z" stroke-miterlimit="10"></path></g><g transform="translate(-14,-62) scale(1,1)"><path fill="none" stroke="#000000" d="M 296 477 L 433 477" stroke-miterlimit="10"></path></g><g transform="translate(-14,-62) scale(1,1)"><path fill="none" stroke="#000000" d="M 296 575 L 433 575" stroke-miterlimit="10"></path></g><g transform="translate(-14,-62) scale(1,1)"><g><path fill="none" stroke="none"></path><text fill="#000000" stroke="none" font-family="Arial" font-size="13px" font-style="normal" font-weight="bold" text-decoration="none" x="335" y="471.5">TimeEntry</text></g></g><g transform="translate(-14,-62) scale(1,1)"><g><path fill="none" stroke="none"></path><text fill="#000000" stroke="none" font-family="Arial" font-size="13px" font-style="normal" font-weight="normal" text-decoration="none" x="301" y="494.5">+Hours</text></g></g><g transform="translate(-14,-62) scale(1,1)"><g><path fill="none" stroke="none"></path><text fill="#000000" stroke="none" font-family="Arial" font-size="13px" font-style="normal" font-weight="normal" text-decoration="none" x="301" y="509.5">+Project</text></g></g><g transform="translate(-14,-62) scale(1,1)"><g><path fill="none" stroke="none"></path><text fill="#000000" stroke="none" font-family="Arial" font-size="13px" font-style="normal" font-weight="normal" text-decoration="none" x="301" y="524.5">+IsUploadedMjolner</text></g></g><g transform="translate(-14,-62) scale(1,1)"><g><path fill="none" stroke="none"></path><text fill="#000000" stroke="none" font-family="Arial" font-size="13px" font-style="normal" font-weight="normal" text-decoration="none" x="301" y="539.5">+IsUploadedCustomer</text></g></g><g transform="translate(-14,-62) scale(1,1)"><g><path fill="none" stroke="none"></path><text fill="#000000" stroke="none" font-family="Arial" font-size="13px" font-style="normal" font-weight="normal" text-decoration="none" x="301" y="554.5">+Date</text></g></g><g transform="translate(-14,-62) scale(1,1)"><g><path fill="none" stroke="none"></path><text fill="#000000" stroke="none" font-family="Arial" font-size="13px" font-style="normal" font-weight="normal" text-decoration="none" x="301" y="569.5">+Task</text></g></g><g transform="translate(-14,-62) scale(1,1)"><rect fill="#C0C0C0" stroke="none" x="31" y="595" width="103" height="44" opacity="0.2"></rect></g><g transform="translate(-14,-62) scale(1,1)"><rect fill="#ffffff" stroke="none" x="24" y="588" width="103" height="44"></rect></g><g transform="translate(-14,-62) scale(1,1)"><path fill="none" stroke="#000000" d="M 24 588 L 127 588 L 127 632 L 24 632 L 24 588 Z Z" stroke-miterlimit="10"></path></g><g transform="translate(-14,-62) scale(1,1)"><path fill="none" stroke="#000000" d="M 24 613 L 127 613" stroke-miterlimit="10"></path></g><g transform="translate(-14,-62) scale(1,1)"><path fill="none" stroke="#000000" d="M 24 623 L 127 623" stroke-miterlimit="10"></path></g><g transform="translate(-14,-62) scale(1,1)"><g><path fill="none" stroke="none"></path><text fill="#000000" stroke="none" font-family="Arial" font-size="13px" font-style="italic" font-weight="bold" text-decoration="none" x="31" y="607.5">WebIntegration</text></g></g><g transform="translate(-14,-62) scale(1,1)"><rect fill="#C0C0C0" stroke="none" x="51" y="695" width="56" height="44" opacity="0.2"></rect></g><g transform="translate(-14,-62) scale(1,1)"><rect fill="#ffffff" stroke="none" x="44" y="688" width="56" height="44"></rect></g><g transform="translate(-14,-62) scale(1,1)"><path fill="none" stroke="#000000" d="M 44 688 L 100 688 L 100 732 L 44 732 L 44 688 Z Z" stroke-miterlimit="10"></path></g><g transform="translate(-14,-62) scale(1,1)"><path fill="none" stroke="#000000" d="M 44 713 L 100 713" stroke-miterlimit="10"></path></g><g transform="translate(-14,-62) scale(1,1)"><path fill="none" stroke="#000000" d="M 44 723 L 100 723" stroke-miterlimit="10"></path></g><g transform="translate(-14,-62) scale(1,1)"><g><path fill="none" stroke="none"></path><text fill="#000000" stroke="none" font-family="Arial" font-size="13px" font-style="normal" font-weight="bold" text-decoration="none" x="50.5" y="707.5">Harvest</text></g></g><g transform="translate(-14,-62) scale(1,1)"><path fill="none" stroke="#000000" d="M 72.69 687 L 74.31 633" stroke-miterlimit="10"></path></g><g transform="translate(-14,-62) scale(1,1)"><path fill="#FFFFFF" stroke="none" d="M 82.11576321710491 653.5686669621172 L 74.31 633 L 65.28526421427063 653.0637519920322"></path></g><g transform="translate(-14,-62) scale(1,1)"><path fill="none" stroke="#000000" d="M 82.11576321710491 653.5686669621172 L 74.31 633 L 65.28526421427063 653.0637519920322 L 82.11576321710491 653.5686669621172" stroke-miterlimit="10"></path></g><g transform="translate(-14,-62) scale(1,1)"><rect fill="#C0C0C0" stroke="none" x="587" y="475" width="144" height="130" opacity="0.2"></rect></g><g transform="translate(-14,-62) scale(1,1)"><rect fill="#ffffff" stroke="none" x="580" y="468" width="144" height="130"></rect></g><g transform="translate(-14,-62) scale(1,1)"><path fill="none" stroke="#000000" d="M 580 468 L 724 468 L 724 598 L 580 598 L 580 468 Z Z" stroke-miterlimit="10"></path></g><g transform="translate(-14,-62) scale(1,1)"><path fill="none" stroke="#000000" d="M 580 493 L 724 493" stroke-miterlimit="10"></path></g><g transform="translate(-14,-62) scale(1,1)"><path fill="none" stroke="#000000" d="M 580 531 L 724 531" stroke-miterlimit="10"></path></g><g transform="translate(-14,-62) scale(1,1)"><g><path fill="none" stroke="none"></path><text fill="#000000" stroke="none" font-family="Arial" font-size="13px" font-style="normal" font-weight="bold" text-decoration="none" x="591" y="487.5">UnitOfWorkController</text></g></g><g transform="translate(-14,-62) scale(1,1)"><g><path fill="none" stroke="none"></path><text fill="#000000" stroke="none" font-family="Arial" font-size="13px" font-style="normal" font-weight="normal" text-decoration="none" x="585" y="510.5">+Entries</text></g></g><g transform="translate(-14,-62) scale(1,1)"><g><path fill="none" stroke="none"></path><text fill="#000000" stroke="none" font-family="Arial" font-size="13px" font-style="normal" font-weight="normal" text-decoration="none" x="585" y="525.5">+DbConnection</text></g></g><g transform="translate(-14,-62) scale(1,1)"><g><path fill="none" stroke="none"></path><text fill="#000000" stroke="none" font-family="Arial" font-size="13px" font-style="normal" font-weight="normal" text-decoration="none" x="585" y="548.5">+Add(entity: Entry)</text></g></g><g transform="translate(-14,-62) scale(1,1)"><g><path fill="none" stroke="none"></path><text fill="#000000" stroke="none" font-family="Arial" font-size="13px" font-style="normal" font-weight="normal" text-decoration="none" x="585" y="563.5">+Commit(): bool</text></g></g><g transform="translate(-14,-62) scale(1,1)"><g><path fill="none" stroke="none"></path><text fill="#000000" stroke="none" font-family="Arial" font-size="13px" font-style="normal" font-weight="normal" text-decoration="none" x="585" y="578.5">+Save(): bool</text></g></g><g transform="translate(-14,-62) scale(1,1)"><rect fill="#C0C0C0" stroke="none" x="611" y="651" width="72" height="44" opacity="0.2"></rect></g><g transform="translate(-14,-62) scale(1,1)"><rect fill="#ffffff" stroke="none" x="604" y="644" width="72" height="44"></rect></g><g transform="translate(-14,-62) scale(1,1)"><path fill="none" stroke="#000000" d="M 604 644 L 676 644 L 676 688 L 604 688 L 604 644 Z Z" stroke-miterlimit="10"></path></g><g transform="translate(-14,-62) scale(1,1)"><path fill="none" stroke="#000000" d="M 604 669 L 676 669" stroke-miterlimit="10"></path></g><g transform="translate(-14,-62) scale(1,1)"><path fill="none" stroke="#000000" d="M 604 679 L 676 679" stroke-miterlimit="10"></path></g><g transform="translate(-14,-62) scale(1,1)"><g><path fill="none" stroke="none"></path><text fill="#000000" stroke="none" font-family="Arial" font-size="13px" font-style="normal" font-weight="bold" text-decoration="none" x="611.5" y="663.5">OrmLayer</text></g></g><g transform="translate(-14,-62) scale(1,1)"><path fill="#C0C0C0" stroke="none" d="M 740.5 662.5 C 740.5 656.1487248 745.6487248 651 752 651 C 758.3512752 651 763.5 656.1487248 763.5 662.5 C 763.5 668.8512752 758.3512752 674 752 674 C 745.6487248 674 740.5 668.8512752 740.5 662.5 Z" opacity="0.2"></path></g><g transform="translate(-14,-62) scale(1,1)"><path fill="#ffffff" stroke="none" d="M 733.5 655.5 C 733.5 649.1487248 738.6487248 644 745 644 C 751.3512752 644 756.5 649.1487248 756.5 655.5 C 756.5 661.8512752 751.3512752 667 745 667 C 738.6487248 667 733.5 661.8512752 733.5 655.5 Z"></path></g><g transform="translate(-14,-62) scale(1,1)"><path fill="none" stroke="#000000" d="M 733.5 655.5 C 733.5 649.1487248 738.6487248 644 745 644 C 751.3512752 644 756.5 649.1487248 756.5 655.5 C 756.5 661.8512752 751.3512752 667 745 667 C 738.6487248 667 733.5 661.8512752 733.5 655.5 Z" stroke-miterlimit="10"></path></g><g transform="translate(-14,-62) scale(1,1)"><g><path fill="none" stroke="none"></path><text fill="#000000" stroke="none" font-family="Arial" font-size="13px" font-style="normal" font-weight="bold" text-decoration="none" x="709.5" y="686.5">Serialization</text></g></g><g transform="translate(-14,-62) scale(1,1)"><path fill="none" stroke="#000000" d="M 677 666.7047619047619 L 699 667.1238095238095" stroke-miterlimit="10"></path></g><g transform="translate(-14,-62) scale(1,1)"><path fill="#C0C0C0" stroke="none" d="M 153 434.5 C 153 428.1487248 158.1487248 423 164.5 423 C 170.8512752 423 176 428.1487248 176 434.5 C 176 440.8512752 170.8512752 446 164.5 446 C 158.1487248 446 153 440.8512752 153 434.5 Z" opacity="0.2"></path></g><g transform="translate(-14,-62) scale(1,1)"><path fill="#ffffff" stroke="none" d="M 146 427.5 C 146 421.1487248 151.1487248 416 157.5 416 C 163.8512752 416 169 421.1487248 169 427.5 C 169 433.8512752 163.8512752 439 157.5 439 C 151.1487248 439 146 433.8512752 146 427.5 Z"></path></g><g transform="translate(-14,-62) scale(1,1)"><path fill="none" stroke="#000000" d="M 146 427.5 C 146 421.1487248 151.1487248 416 157.5 416 C 163.8512752 416 169 421.1487248 169 427.5 C 169 433.8512752 163.8512752 439 157.5 439 C 151.1487248 439 146 433.8512752 146 427.5 Z" stroke-miterlimit="10"></path></g><g transform="translate(-14,-62) scale(1,1)"><path fill="none" stroke="#000000" d="M 96 464 L 219 464" stroke-miterlimit="10"></path></g><g transform="translate(-14,-62) scale(1,1)"><g><path fill="none" stroke="none"></path><text fill="#000000" stroke="none" font-family="Arial" font-size="13px" font-style="normal" font-weight="bold" text-decoration="none" x="142" y="458.5">Entry</text></g></g><g transform="translate(-14,-62) scale(1,1)"><g><path fill="none" stroke="none"></path><text fill="#000000" stroke="none" font-family="Arial" font-size="13px" font-style="normal" font-weight="normal" text-decoration="none" x="101" y="481.5">+Hours</text></g></g><g transform="translate(-14,-62) scale(1,1)"><g><path fill="none" stroke="none"></path><text fill="#000000" stroke="none" font-family="Arial" font-size="13px" font-style="normal" font-weight="normal" text-decoration="none" x="101" y="496.5">+Project</text></g></g><g transform="translate(-14,-62) scale(1,1)"><g><path fill="none" stroke="none"></path><text fill="#000000" stroke="none" font-family="Arial" font-size="13px" font-style="normal" font-weight="normal" text-decoration="none" x="101" y="511.5">+IsUploadedMjolner</text></g></g><g transform="translate(-14,-62) scale(1,1)"><path fill="none" stroke="#000000" d="M 295 500.6666666666667 L 220 481.82608695652175" stroke-miterlimit="10"></path></g><g transform="translate(-14,-62) scale(1,1)"><rect fill="#C0C0C0" stroke="none" x="239" y="347" width="121" height="44" opacity="0.2"></rect></g><g transform="translate(-14,-62) scale(1,1)"><rect fill="#ffffff" stroke="none" x="232" y="340" width="121" height="44"></rect></g><g transform="translate(-14,-62) scale(1,1)"><path fill="none" stroke="#000000" d="M 232 340 L 353 340 L 353 384 L 232 384 L 232 340 Z Z" stroke-miterlimit="10"></path></g><g transform="translate(-14,-62) scale(1,1)"><path fill="none" stroke="#000000" d="M 232 365 L 353 365" stroke-miterlimit="10"></path></g><g transform="translate(-14,-62) scale(1,1)"><path fill="none" stroke="#000000" d="M 232 375 L 353 375" stroke-miterlimit="10"></path></g><g transform="translate(-14,-62) scale(1,1)"><g><path fill="none" stroke="none"></path><text fill="#000000" stroke="none" font-family="Arial" font-size="13px" font-style="normal" font-weight="bold" text-decoration="none" x="242" y="359.5">TimeEntryService</text></g></g><g transform="translate(-14,-62) scale(1,1)"><rect fill="#C0C0C0" stroke="none" x="431" y="351" width="97" height="44" opacity="0.2"></rect></g><g transform="translate(-14,-62) scale(1,1)"><rect fill="#ffffff" stroke="none" x="424" y="344" width="97" height="44"></rect></g><g transform="translate(-14,-62) scale(1,1)"><path fill="none" stroke="#000000" d="M 424 344 L 521 344 L 521 388 L 424 388 L 424 344 Z Z" stroke-miterlimit="10"></path></g><g transform="translate(-14,-62) scale(1,1)"><path fill="none" stroke="#000000" d="M 424 369 L 521 369" stroke-miterlimit="10"></path></g><g transform="translate(-14,-62) scale(1,1)"><path fill="none" stroke="#000000" d="M 424 379 L 521 379" stroke-miterlimit="10"></path></g><g transform="translate(-14,-62) scale(1,1)"><g><path fill="none" stroke="none"></path><text fill="#000000" stroke="none" font-family="Arial" font-size="13px" font-style="normal" font-weight="bold" text-decoration="none" x="433" y="363.5">ActionService</text></g></g><g transform="translate(-14,-62) scale(1,1)"><path fill="none" stroke="#000000" d="M 549.5568181818181 301 L 499.4431818181818 343" stroke-miterlimit="10" stroke-dasharray="3"></path></g><g transform="translate(-14,-62) scale(1,1)"><path fill="none" stroke="#000000" d="M 294.9047619047619 301 L 293.09523809523813 339" stroke-miterlimit="10" stroke-dasharray="3"></path></g><g transform="translate(-14,-62) scale(1,1)"><path fill="none" stroke="#000000" d="M 296 225 L 296 255" stroke-miterlimit="10"></path></g><g transform="translate(-14,-62) scale(1,1)"><path fill="none" stroke="#000000" d="M 577 225 L 577 255" stroke-miterlimit="10" stroke-dasharray="3"></path></g><g transform="translate(-14,-62) scale(1,1)"><g><path fill="none" stroke="none"></path><text fill="#000000" stroke="none" font-family="Arial" font-size="10px" font-style="normal" font-weight="normal" text-decoration="none" x="541" y="331">When e.g. Save() is called in ActionService is called, it fetches all time entries from the TimeEntryService</text></g></g><g transform="translate(-14,-62) scale(1,1)"><path fill="none" stroke="#000000" d="M 434 521.6458333333334 L 579 529.1979166666666" stroke-miterlimit="10" stroke-dasharray="3"></path></g><g transform="translate(-14,-62) scale(1,1)"><g><path fill="none" stroke="none"></path><text fill="#000000" stroke="none" font-family="Arial" font-size="13px" font-style="normal" font-weight="normal" text-decoration="none" x="585" y="414">ActionService communicates to UnitOfWork</text></g></g><g transform="translate(-14,-62) scale(1,1)"><g><path fill="none" stroke="none"></path><text fill="#000000" stroke="none" font-family="Arial" font-size="13px" font-style="normal" font-weight="normal" text-decoration="none" x="741" y="482">UnitOfWorkController creates TimeEntry objects for each received JSON object (simply using JSON.net serialization)</text></g></g></g></svg>